<svg width="32" height="32" viewBox="0 0 120 120" fill="none" xmlns="http://www.w3.org/2000/svg">
  <circle cx="60" cy="60" r="52" stroke="#22C55E" stroke-width="7" stroke-linecap="round" stroke-dasharray="310 20"/>
  <circle cx="60" cy="60" r="36" stroke="#22C55E" stroke-width="6" stroke-linecap="round" stroke-dasharray="210 18"/>
  <path d="M63 33v6.5c5.8.8 10.2 3 13 6.5l-6.5 5.5c-2-2.5-4.5-4-7.5-4.5-4-.7-7 1-7.5 4-.5 3 1.5 5 6 6.5 7.5 2.5 13 5.5 12 13-0.8 5.5-4.5 9.5-10 11v7h-6v-7c-6-.8-10.5-3.5-13.5-8l7-5c2 3 5 5 8.5 5.5 4.5.7 7.5-1 8-4.5.5-3.5-2-5.5-7-7.5-6.5-2.5-11.5-5.5-10.5-13 .7-5 4-8.5 9.5-10V33h6z" fill="#22C55E"/>
</svg>
